<svg xmlns="http://www.w3.org/2000/svg" viewBox="0 0 251.69 316.02"><defs><style>.cls-1{isolation:isolate;}.cls-2{fill:#f9c;}.cls-3{fill:#6cc;}.cls-4{fill:#fc6;}.cls-5{fill:#0cc;}.cls-6{fill:#69c;}.cls-7{opacity:0.58;mix-blend-mode:overlay;}.cls-8{fill:#662d91;}.cls-9{fill:#c66;}.cls-10{fill:#9cc;}.cls-11{fill:#f69;}.cls-12,.cls-13{fill:none;stroke-miterlimit:10;}.cls-12{stroke:#662d91;stroke-width:2px;}.cls-13{stroke:#fff;}</style></defs><g class="cls-1"><g id="post-its"><g id="cores"><path class="cls-2" d="M339.12,677.45c2.31-3.94,5.59-3.61,8.48-3.31.44.05.89.1,1.37.13a367.92,367.92,0,0,1,54.69,8.53c1.1.25,2.19.52,3.28.78,4.54,1.09,9.24,2.21,13.89,2.91l1.22.16c-.12-7.21-.05-14.48.2-21.69-4.31-2.94-8.47-6-12.5-8.88-1.48-1.08-3.72-2.7-4.39-5.32a9.92,9.92,0,0,1,.36-5A314,314,0,0,1,416.05,614c4.65-12.21,9.94-24.2,15.35-35.77-19.23.68-38.51-1.67-57.19-4l-57.1-7c-4.09,15.14-6.88,31.91-9,54-1.95,20.42-3,41.16-3.05,61.67a114.15,114.15,0,0,0,32.12,2.86C337.44,682.91,337.79,679.72,339.12,677.45Z" transform="translate(-301.07 -545.68)"/><path class="cls-3" d="M403.24,801.39c5.24.34,10.47,1.14,15.53,1.91L436.58,806c6.25-13.9,7.05-29.92,7-45.21q0-3.6-.08-7.2c-.17-13.73-.36-27.93,2.93-41.55.58-2.38,1.26-4.76,1.93-7.06a80.76,80.76,0,0,0,3.12-13.77c-10.27.45-20.83.78-31.22-.79-4.82-.73-9.6-1.88-14.22-3l-3.26-.78a364.16,364.16,0,0,0-54.09-8.43l-1.47-.14c-2.92-.3-3.65-.31-4.62,1.35s-1.24,4.78-1.46,7.52c-.11,1.31-.21,2.55-.38,3.63-1.53,9.3-3,18.75-4.5,28.1q-1.1,7.08-2.18,14.16l-9.17,59.79c9.29,2.93,19,3.14,29.31,3.37,7.92.17,16.11.36,24,1.91,1.66.33,3.32.71,4.92,1.09,2.47.58,5,1.17,7.52,1.52,2.73.39,5.57.5,8.33.62C400.41,801.24,401.83,801.29,403.24,801.39Z" transform="translate(-301.07 -545.68)"/><path class="cls-4" d="M502.3,682.94a73.51,73.51,0,0,1-36.23,2.38c-14.61-2.72-27.82-9.78-39.9-17.73-.19,6.5-.23,13-.11,19.52,9.12.84,18.41.44,27.45,0l2.18-.1-.09,2.18c-.24,5.84-1.86,11.46-3.43,16.89-.65,2.26-1.32,4.6-1.88,6.89-3.17,13.13-3,27.07-2.82,40.56q.06,3.61.08,7.23c0,5.79-.07,11.7-.53,17.57,18.51,2,37.45,2.52,55.78,3,11.13.28,22.61.57,33.72-1.21l.07-67.63c0-15.39,0-31.28,2.47-46.84a44.2,44.2,0,0,1-15.89-.09,28.25,28.25,0,0,1-2.54,5C517,676,511.05,680.08,502.3,682.94Z" transform="translate(-301.07 -545.68)"/><path class="cls-5" d="M488.8,563.24a192,192,0,0,0-28.07-10.38c-.79-.24-1.76-.61-2.88-1-2.26-.87-7-2.66-8.33-2s-3.4,6.14-4.21,8.23c-.51,1.31-.94,2.44-1.33,3.23-8.33,17-17,35.36-24.19,54.16a308.47,308.47,0,0,0-10.2,31.34,6.61,6.61,0,0,0-.35,3c.28,1.12,1.51,2.09,2.86,3.06,16,11.58,34.07,24.7,54.7,28.55a69.51,69.51,0,0,0,34.26-2.25c7.85-2.57,13.16-6.09,16.23-10.76,2-3,3.05-6.56,4.17-10.3.22-.73.44-1.46.67-2.19,3.08-9.85,7.64-19.29,12.06-28.42,5.53-11.45,11.25-23.26,13.88-35.73-14.6-2.69-27.57-10.4-40.14-17.86C501.72,570.19,495.3,566.37,488.8,563.24Z" transform="translate(-301.07 -545.68)"/><path class="cls-6" d="M502.7,785.36c-18.39-.47-37.39-1-56-3-1,9.25-3.06,18.34-7.09,26.75l-.64,1.34-20.77-3.18c-5-.76-10.12-1.55-15.18-1.88-1-.06-2-.1-2.92-.14a3.22,3.22,0,0,0,0,3,12.42,12.42,0,0,0,3.74,3.85l24.87,19.46c5.5,4.3,11.19,8.75,17.51,11.79,7.38,3.55,15.65,5.2,23.64,6.79L504.24,857a436.7,436.7,0,0,0,13.12-71.48h-2C511.12,785.57,506.89,785.46,502.7,785.36Z" transform="translate(-301.07 -545.68)"/></g><g id="sombras" class="cls-7"><path class="cls-8" d="M502,695.65c-2.63.51-5.34-.17-7.93-.89A188.51,188.51,0,0,1,465.13,684c5.49-.71,11-1.42,16.53-.81,8.43.94,14.09,1.54,21.9-2.41,4.31-2.18,9-6.8,13.63-7.66C516.43,680.16,509.94,694.09,502,695.65Z" transform="translate(-301.07 -545.68)"/><path class="cls-8" d="M400.55,688.68a10.43,10.43,0,0,1,1.54-1.12,2.1,2.1,0,0,1,2.63,2.34c-.13.51-1.14,1.31-1.46,1.76a22.47,22.47,0,0,0-1.68,2.73,10.27,10.27,0,0,1-1.52,2.47,7.11,7.11,0,0,1-2.51,1.57,11.76,11.76,0,0,1-5.77.8,7.59,7.59,0,0,1-3.21-.65c-.93-.51-1.73-1.45-2.79-1.41a4.73,4.73,0,0,0-1.21.33,7.06,7.06,0,0,1-3.44.32,10,10,0,0,1,1.47-1.64,2.52,2.52,0,0,1,1.16-.69c1-.22,1.9.54,2.84.92a3.93,3.93,0,0,0,3.67-.45,7.69,7.69,0,0,0,2.07-2.71c1-1.77,1.28-3,3.34-3.41.87-.2,1.77-.19,2.64-.37A18.81,18.81,0,0,1,400.55,688.68Z" transform="translate(-301.07 -545.68)"/><path class="cls-8" d="M398.55,575.69c1.15.17,2.47.47,3,1.51a2.5,2.5,0,0,1-1,2.89,8,8,0,0,1-3.07,1.15,6,6,0,0,0-3,1.36c-1.52,1.51-1.27,4.23-2.85,5.68a4.24,4.24,0,0,1-4.79.23,9.88,9.88,0,0,1-2.81-2.58c-.34-.41-1.68-1.87-1.46-2.44a.75.75,0,0,1,.3-.31,3.33,3.33,0,0,1,1.55-.52,10.76,10.76,0,0,1,2.68.46,3,3,0,0,0,2.6-.42c.81-.71.74-2.44.89-3.45C391.5,573.54,393.36,574.9,398.55,575.69Z" transform="translate(-301.07 -545.68)"/><path class="cls-8" d="M509.86,579.57a5.79,5.79,0,0,1,4.62,4.25,2.61,2.61,0,0,1-.53,2.33,3.52,3.52,0,0,1-1.42.74l-9,3.12a15.63,15.63,0,0,1-2.83.78,10.46,10.46,0,0,1-5.36-.88,2.36,2.36,0,0,1-.86-.52,2.57,2.57,0,0,1-.46-1.81l0-4.27a.81.81,0,0,1,.18-.63.66.66,0,0,1,.45-.14c1.11,0,1.91,1,2.71,1.77a4.92,4.92,0,0,0,2.48,1.36c3.33.55,2.64-2.76,3.72-4.62S508,579.18,509.86,579.57Z" transform="translate(-301.07 -545.68)"/><path class="cls-8" d="M442.43,799c-.06,1.32-.15,2.62-.29,3.93h0a67.74,67.74,0,0,1-1.37,8.36,1.55,1.55,0,0,1-2,1.52c-1.62-.12-3.24-.37-4.85-.61L399.69,807l-4-.61a6.35,6.35,0,0,1,.17-1.3c-1.9-.11-3.82-.25-5.74-.51-2.68-.38-5.32-1-7.87-1.6-1.57-.36-3.19-.74-4.78-1q-1.66-.33-3.36-.57h0a156.38,156.38,0,0,0-19.47-1.26c-2.58-.4-5.14-.8-7.73-1.12-2.33-.3-5.25-.09-7.44-.85l1.45-.14c10-.86,20.48-.12,30.42.83a31.18,31.18,0,0,1,6.66,1.16c2,.63,3.9,1.64,5.95,2.13,2.78.66,5.69.32,8.55.22,13.74-.43,27,5,40.74,5.83a4.6,4.6,0,0,0,2.36-.28,4.79,4.79,0,0,0,1.65-1.64Z" transform="translate(-301.07 -545.68)"/><path class="cls-8" d="M450.41,720.61c-.36,3.16-.68,6.32-.77,9.49-.12,4.06.12,8.13.06,12.19a80,80,0,0,1-3.2,21.19c-2.8-7.32-2.68-15.39-2.51-23.23a53.82,53.82,0,0,1,1.17-12.16c.42-1.69,1-3.34,1.43-5,.9-3.66,1-7.48,1.66-11.19,1-5.47,3.31-10.45,5.58-15.49C452.31,704.38,451.32,712.52,450.41,720.61Z" transform="translate(-301.07 -545.68)"/><path class="cls-8" d="M426.54,583.5q-10.1,20.75-18.49,42.27c-4.28,11-8.26,22.29-8.47,34.05a5.52,5.52,0,0,0,.49,2.88,5.63,5.63,0,0,0,2.23,1.92,57.69,57.69,0,0,0,8.29,3.94c1.29.5,4.88.85,5.45,2.17a3.77,3.77,0,0,1,.16,1.77c-.19,2.85-.29,5.7-.39,8.56l-.25,7a26.06,26.06,0,0,0,5.88.89,1.66,1.66,0,0,0,.77-.11,1.54,1.54,0,0,0,.59-.67,10.28,10.28,0,0,0,1-3.45,66.16,66.16,0,0,0,.22-10,2.72,2.72,0,0,1,.39-1.78c.78-1,4.5.42,5.58.65a38.24,38.24,0,0,1,7,2.09c3.26,1.39,6.23,3.49,9.62,4.52,2.17.67,4.45.88,6.58,1.63,1.86.66,3.73,1.73,5.67,1.4a.75.75,0,0,0,.55-.29c.23-.36-.19-.79-.56-1l-6.67-4.18a13.28,13.28,0,0,0-2.26-1.21,16.5,16.5,0,0,0-2.86-.67,54.72,54.72,0,0,1-12.48-4.42,30.28,30.28,0,0,1-4.31-2.32,34.11,34.11,0,0,1-3.43-2.83c-1-.92-2.63-1.77-3.49-2.83-.69-.84-.9-2.1-1.53-3a9.82,9.82,0,0,0-3-2.86c-3.29-2-7.78-2.12-10.11-5.16s-1.26-7.57,0-11.3q4.53-13.57,9.05-27.16a116.28,116.28,0,0,1,6-15.59c2.61-5.21,6.05-10.08,8-15.62C434.77,574,429,578.55,426.54,583.5Z" transform="translate(-301.07 -545.68)"/><path class="cls-8" d="M316.4,578a63.89,63.89,0,0,0-2.18,11c-1.59,11.43-3.17,22.88-3.64,34.41-.19,4.7-.19,9.43-1.05,14.06-.51,2.75-1.31,5.44-1.8,8.2a73.43,73.43,0,0,0-.8,11.39q-.19,11.84-.4,23.68a12.25,12.25,0,0,1-.26,2.57,3.72,3.72,0,0,1-1.17,2.05,3.55,3.55,0,0,1-4,.12v-.88c0-21.15,1.06-42.56,3.07-63.62,2.21-23.18,5.17-40.57,9.57-56.38l.25-.91c3.06-.41,4.21,1.35,4.42,3.8C318.7,571.06,317,576.15,316.4,578Z" transform="translate(-301.07 -545.68)"/><path class="cls-8" d="M379.67,801c-1.86.12-3.71.21-5.57.28h0a156.38,156.38,0,0,0-19.47-1.26h-.51c-10.7-.24-21.76-.48-32.12-4.12l-1.57-.55,9.68-63.1q1.08-7.08,2.18-14.17c1.46-9.35,3-18.82,4.5-28.12,0,0,0-.06,0-.09l-2,.08c1.42-2,3.51-3.08,3.73-6.19.11-1.65.07-3.37.84-4.83s2.7-2.48,4.09-1.6c0,.34,0,.67,0,1h0A86.15,86.15,0,0,1,342.11,698c-.81,4.3-1.94,8.53-2.93,12.79a212.49,212.49,0,0,0-5.5,42.17c-.15,5.13-.13,10.33-1.39,15.31-1,4-2.86,7.81-4,11.82a33.11,33.11,0,0,0-1,11.34,8.17,8.17,0,0,0,.38,2,3.57,3.57,0,0,0,.47.91c.89,1.24,2.52,1.67,4,2q4.35.92,8.74,1.58a156.18,156.18,0,0,0,26.54,1.75C371.57,799.61,375.87,799.4,379.67,801Z" transform="translate(-301.07 -545.68)"/><path class="cls-8" d="M538.09,783.94a118.93,118.93,0,0,1-16.71,1.55c-.1,1-.21,2.08-.32,3.13-1.33,0-2.67-.11-4-.2-6.51-.41-13-1.2-19.54-1.5-13.82-.64-27.72.94-41.49-.71-1.72-.2-6.94-1.24-9.51-2.67h0c-2-1.11-2.4-2.46,1.63-3.85a16.22,16.22,0,0,1,4.34-.76h0a57.52,57.52,0,0,1,11.5.92h0c2.23.36,4.31.73,6.05,1,6.08.91,12.1,2.31,18.23,2.82a129.09,129.09,0,0,0,15.11.05l29.63-1.09c1.54-.05,3.2-.08,4.47.79A2.44,2.44,0,0,1,538.09,783.94Z" transform="translate(-301.07 -545.68)"/></g><g id="contorno"><path class="cls-8" d="M526,657.09c3-9.58,7.49-18.88,11.84-27.88,6-12.29,12.09-25,14.6-38.74l.37-2-2-.31c-14.66-2.2-27.33-9.72-40.75-17.69-6.28-3.73-12.78-7.59-19.43-10.8A195.08,195.08,0,0,0,461.87,549c-.64-.19-1.59-.55-2.59-.93-4.84-1.86-8.76-3.18-11.47-1.9-2.51,1.19-4.24,5.24-6.23,10.41-.45,1.17-.88,2.28-1.19,2.91-2.34,4.77-4.7,9.66-7.06,14.63-19.6.92-39.43-1.49-58.63-3.84l-60.53-7.39-.21.75-.25.91c-4.4,15.81-7.36,33.2-9.57,56.38-2,21.06-3,42.47-3.07,63.62v1.56l1.52.38A117.69,117.69,0,0,0,331.21,690c1.19,0,2.38,0,3.57-.07h0l2-.08s0,.06,0,.09c-1.53,9.3-3,18.77-4.5,28.12q-1.09,7.08-2.18,14.17l-9.68,63.1,1.57.55c10.36,3.64,21.42,3.88,32.12,4.12h.51a156.38,156.38,0,0,1,19.47,1.26h0q1.69.24,3.36.57c1.59.31,3.21.69,4.78,1,2.55.6,5.19,1.22,7.87,1.6,1.92.26,3.84.4,5.74.51a6.35,6.35,0,0,0-.17,1.3,7.91,7.91,0,0,0,.78,3.71,15.93,15.93,0,0,0,4.86,5.24l24.87,19.46c5.67,4.43,11.54,9,18.25,12.25,7.84,3.76,16.35,5.46,24.59,7.1l38.08,7.6.5-1.8a439.8,439.8,0,0,0,13.45-71.28c.11-1,.22-2.09.32-3.13a118.93,118.93,0,0,0,16.71-1.55l.78-.13,1.65-.3.07-71c0-16.18,0-32.92,2.9-49.06l.54-3-3,.75a40,40,0,0,1-16.52.6c.26-.85.52-1.7.77-2.54ZM334.18,686h0c-1.64,0-3.27,0-4.9,0l-1.39,0-1.64-.06-1.65-.08-1.26-.08-1.12-.08-.94-.07c-1-.09-2-.2-3-.31l-1.14-.14L315.8,685l-1-.15-1.35-.2-1.36-.23c-.79-.13-1.57-.27-2.35-.42-.41-.07-.81-.15-1.21-.24-.75-.15-1.49-.3-2.24-.47l-1.2-.28c.08-20.51,1.1-41.25,3.05-61.67,2.11-22.12,4.9-38.89,9-54l1.27.16,55.83,6.81,3.09.38,5.49.66,3.84.45.48,0c1.44.17,2.88.33,4.33.48h0c.84.09,1.68.19,2.52.27l2.52.25c.84.09,1.68.17,2.53.24l2.53.22,2.86.23c.95.08,1.91.15,2.86.21l2.76.18h.2l2.15.13.4,0h.08c.19,0,.38,0,.57,0l.6,0,1.84.08q1.44.06,2.88.09c.95,0,1.91.05,2.87.06l2.95,0c1.13,0,2.25,0,3.38,0l2.76-.07h0l.68,0C426,589.8,420.7,601.79,416.05,614a314,314,0,0,0-10.33,31.75,9.92,9.92,0,0,0-.36,5c.67,2.62,2.91,4.24,4.39,5.32,4,2.92,8.19,5.94,12.5,8.88-.25,7.21-.32,14.48-.2,21.69l-1.22-.16-1.29-.21-1-.17-1.21-.22-1.4-.27-.29-.06h-.06c-2-.42-4-.86-6-1.33l-.18,0-2.5-.6c-1.09-.26-2.18-.53-3.28-.78A367.92,367.92,0,0,0,349,674.27c-.48,0-.93-.08-1.37-.13-2.89-.3-6.17-.63-8.48,3.31-1.33,2.27-1.68,5.46-1.93,8.41C336.19,685.91,335.18,686,334.18,686Zm-9.3,106.69,9.17-59.79q1.08-7.08,2.18-14.16c1.46-9.35,3-18.8,4.5-28.1.17-1.08.27-2.32.38-3.63.22-2.74.47-5.83,1.46-7.52.08-.13.15-.25.23-.36a2,2,0,0,1,.17-.23l.08-.1,0,0,.05,0,0-.05a.53.53,0,0,1,.13-.13l.08-.07.1-.08h0l.11-.08a.38.38,0,0,1,.13-.06,1,1,0,0,1,.21-.09.9.9,0,0,1,.28-.08,6.19,6.19,0,0,1,1.76,0l1.18.11,1.47.14a364.16,364.16,0,0,1,54.09,8.43l3.26.78c4.62,1.1,9.4,2.25,14.22,3,10.39,1.57,20.95,1.24,31.22.79A80.76,80.76,0,0,1,448.33,705c-.67,2.3-1.35,4.68-1.93,7.06-3.29,13.62-3.1,27.82-2.93,41.55q.06,3.6.08,7.2c.08,15.29-.72,31.31-7,45.21l-17.81-2.73c-5.06-.77-10.29-1.57-15.53-1.91-1.41-.1-2.83-.15-4.24-.21-2.76-.12-5.6-.23-8.33-.62-2.5-.35-5.05-.94-7.52-1.52-1.6-.38-3.26-.76-4.92-1.09-7.93-1.55-16.12-1.74-24-1.91l-2.88-.07-1.43,0-1.42,0-1.77-.06h-.11c-.44,0-.87,0-1.31-.06l-1.31-.06-1.67-.1c-1.11-.07-2.21-.16-3.31-.26s-2.19-.23-3.27-.37l-1.63-.22-.73-.11-.23,0-.1,0-1-.18-.11,0c-.48-.08-.94-.18-1.42-.28l-.09,0-.1,0L330,794l-1.19-.27-.9-.22-.23-.06C326.74,793.23,325.81,793,324.88,792.67Zm191.7.09q-.24,2.12-.51,4.23a.78.78,0,0,1,0,.16c-.17,1.35-.35,2.71-.53,4.06s-.33,2.44-.51,3.66c0,.13,0,.27,0,.4-.27,1.84-.54,3.67-.84,5.51-.18,1.2-.38,2.4-.58,3.6s-.43,2.59-.66,3.88c-.3,1.73-.61,3.45-.94,5.18s-.66,3.45-1,5.17c-.18.92-.37,1.83-.56,2.75q-.56,2.68-1.15,5.37c-.24,1.11-.49,2.22-.74,3.32l-.06.24c-.31,1.36-.63,2.72-.95,4.07-.26,1.06-.51,2.12-.78,3.18s-.52,2.11-.8,3.17-.54,2.11-.82,3.17-.56,2.11-.84,3.16l-34.43-6.86c-8-1.59-16.26-3.24-23.64-6.79-6.32-3-12-7.49-17.51-11.79l-24.87-19.46a12.42,12.42,0,0,1-3.74-3.85,2.68,2.68,0,0,1-.18-.47,1.09,1.09,0,0,1-.07-.24,1.4,1.4,0,0,1-.06-.28c0-.12,0-.23-.05-.35v-.06a2.88,2.88,0,0,1,0-.72,1.59,1.59,0,0,1,.06-.3,1.91,1.91,0,0,1,.29-.63c1,0,1.95.08,2.92.14,5.06.33,10.21,1.12,15.18,1.88l20.77,3.18.64-1.34c.25-.52.49-1.05.73-1.58s.33-.76.49-1.14.23-.53.34-.81l0-.1.06-.15c.14-.34.27-.68.4-1s.35-.91.51-1.37h0c.06-.16.11-.3.16-.46l.08-.21c.14-.41.28-.81.41-1.22s.22-.65.31-1,.2-.61.29-.92l.27-.93L444,797c.22-.8.42-1.6.61-2.41.09-.36.17-.72.25-1.09,0-.06,0-.12,0-.17.17-.79.33-1.58.49-2.37v0c.08-.4.16-.81.23-1.22l.21-1.23c.13-.81.26-1.62.37-2.43a2.17,2.17,0,0,1,0-.25c.1-.75.2-1.51.29-2.27h0c.05-.39.1-.78.14-1.18,18.65,2,37.65,2.54,56,3,4.19.1,8.42.21,12.68.21h2c-.09,1-.19,1.91-.3,2.86C516.91,789.87,516.75,791.31,516.58,792.76Zm22.48-127.08c-2.44,15.56-2.46,31.45-2.47,46.84l-.07,67.63c-11.11,1.78-22.59,1.49-33.72,1.21l-6.56-.17-7.9-.23-6.36-.22-5.82-.24-2.41-.11c-1.48-.07-3-.14-4.44-.23l-.61,0-4.23-.26-.44,0h0l-.48,0c-1.24-.08-2.48-.16-3.71-.26h-.15l-.63,0-3.77-.31-2.68-.24h-.09l-2-.19-3.48-.36c.46-5.87.56-11.78.53-17.57,0-.42,0-.83,0-1.25,0-2,0-4-.07-6-.17-13.49-.35-27.43,2.82-40.56.56-2.29,1.23-4.63,1.88-6.89,0-.12.07-.24.1-.36v0c.75-2.59,1.5-5.23,2.1-7.91.08-.35.16-.71.23-1.06s.15-.7.21-1.06c.14-.71.26-1.42.36-2.14q.09-.54.15-1.08c.13-1.08.23-2.17.27-3.26l.09-2.18-2.18.1c-9,.4-18.33.8-27.45,0q-.07-3.69-.07-7.4c0-1.15,0-2.3,0-3.45s0-2.4.05-3.61c0-1.69.06-3.38.11-5.06l2.28,1.48c.74.47,1.49.95,2.24,1.41l.14.09c.75.46,1.5.92,2.26,1.37.51.32,1,.62,1.56.93l.89.51,1.93,1.09.74.42.94.5h0l.11.06.22.12.2.1,1.35.71.23.12.19.1.33.17.32.16.1,0,1.14.56c.33.17.66.33,1,.48l1,.47c.68.32,1.35.62,2,.92s1.35.59,2,.87,1.37.56,2.06.83c.53.21,1.05.41,1.58.6h0l.16.06.83.29c.43.16.86.31,1.3.45l1,.32.86.28.1,0,.45.14h0l.2.06c.61.18,1.22.36,1.84.52l1.38.36.12,0c.22.07.44.12.66.17.51.13,1,.25,1.54.36l.89.19c.54.12,1.09.23,1.64.33,1,.2,2.1.37,3.14.51h0l1.28.17c.42.06.85.11,1.28.15s1,.11,1.58.15l1.49.11h.1l1.07.06c.64,0,1.27,0,1.91.06l1.55,0a73.38,73.38,0,0,0,22.81-3.62c.72-.23,1.42-.48,2.1-.73.36-.13.71-.26,1.05-.4l1.27-.52c.41-.17.82-.35,1.22-.54l.67-.31c.35-.16.68-.33,1-.5s.66-.34,1-.52l.67-.37.83-.49.54-.34c.18-.11.36-.22.53-.34s.54-.36.8-.55l.77-.56c.76-.58,1.47-1.18,2.14-1.8q.43-.39.84-.81a5.66,5.66,0,0,0,.42-.43c.21-.22.41-.44.59-.66s.19-.21.28-.32.4-.48.59-.73a1.33,1.33,0,0,0,.14-.19c.11-.13.21-.27.31-.41l.58-.84a28.25,28.25,0,0,0,2.54-5A44.2,44.2,0,0,0,539.06,665.68Zm-16.93-9.79c-.23.73-.45,1.46-.67,2.19-1.12,3.74-2.18,7.28-4.17,10.3-3.07,4.67-8.38,8.19-16.23,10.76a69.51,69.51,0,0,1-34.26,2.25l-2.19-.45c-.52-.11-1.05-.23-1.57-.36l-.23-.06c-.51-.12-1-.25-1.52-.39L461,680c-.48-.12-1-.26-1.43-.41l-.29-.09c-.11,0-.21-.06-.32-.09-.54-.16-1.07-.33-1.6-.51s-1.24-.4-1.85-.63-1.23-.44-1.84-.67-1.22-.46-1.83-.71-1.21-.49-1.81-.75c-1.07-.45-2.13-.92-3.18-1.42l-.45-.21c-.58-.27-1.15-.55-1.72-.84s-1.17-.57-1.75-.88c-.42-.21-.83-.43-1.24-.65l-1.86-1c-1.85-1-3.67-2.08-5.47-3.17l-1.55-1-.28-.17q-1.5-.93-3-1.89l-.25-.16c-.52-.34-1-.68-1.55-1-2.46-1.62-4.86-3.28-7.23-4.95h0l-2.19-1.56,0,0c-2.09-1.48-4.14-3-6.15-4.43-1.35-1-2.58-1.94-2.86-3.06a6.61,6.61,0,0,1,.35-3,308.47,308.47,0,0,1,10.2-31.34c7.16-18.8,15.86-37.14,24.19-54.16.39-.79.82-1.92,1.33-3.23.81-2.09,2.94-7.63,4.21-8.23s6.07,1.14,8.33,2c1.12.43,2.09.8,2.88,1a192,192,0,0,1,28.07,10.38c6.5,3.13,12.92,7,19.13,10.64,12.57,7.46,25.54,15.17,40.14,17.86-2.63,12.47-8.35,24.28-13.88,35.73C529.77,636.6,525.21,646,522.13,655.89Z" transform="translate(-301.07 -545.68)"/></g><g id="preagador"><g id="Camada_36" data-name="Camada 36"><path class="cls-9" d="M394.87,684.74a4.81,4.81,0,0,1-.72-1.13,11.07,11.07,0,0,1-7.28,3.16c-.43,0-.88,0-1.34,0-1.47,0-2.86,0-3.67.77a3.07,3.07,0,0,0-.16,3.4,11.74,11.74,0,0,0,2.42,2.88l1.05,1a9.77,9.77,0,0,0,3.19,2.48c1.15.44,2.74.16,3.14-.88a4,4,0,0,0,.09-1.72c0-.31,0-.63,0-.94a9.17,9.17,0,0,1,1.82-5.25,19.89,19.89,0,0,1,2.57-2.91A5.28,5.28,0,0,1,394.87,684.74Z" transform="translate(-301.07 -545.68)"/><path class="cls-10" d="M389.19,582.52l.26,0,.06-.1a4.79,4.79,0,0,0,.22-3.13,12,12,0,0,1-.12-2.55,10.94,10.94,0,0,1,1.55-4.15l1.71-3.16c-.66-.2-1.29-.42-1.89-.64a9.58,9.58,0,0,1-1.07-.46,16.69,16.69,0,0,1-7.82,5.67l-.19.07c-1,.34-2.06.7-2.28,1.4a1.72,1.72,0,0,0-.05.64,6.08,6.08,0,0,0,3.33,4.56A19.75,19.75,0,0,0,389.19,582.52Z" transform="translate(-301.07 -545.68)"/><path class="cls-10" d="M389.84,565.64a2.72,2.72,0,0,0,.7.78,4.75,4.75,0,0,0,1.13.53,13.43,13.43,0,0,0,4.14,1,1.71,1.71,0,0,0,.6-.07,1.2,1.2,0,0,0,.53-.83,3.89,3.89,0,0,0-.64-3c-.88-1.34-2.66-3-4.26-3a2,2,0,0,0-.69.11,2.91,2.91,0,0,0-1.91,1.73,3,3,0,0,0,.4,2.62Z" transform="translate(-301.07 -545.68)"/><path class="cls-9" d="M396.7,678.39a1.52,1.52,0,0,0-1.2.59,2.86,2.86,0,0,0-.1,1.9,5.24,5.24,0,0,0,1,2.54,5.17,5.17,0,0,0,1.49,1,21.5,21.5,0,0,0,2.25,1,2.75,2.75,0,0,0,.74.2c.63,0,1.18-.8,1.21-1.48a5,5,0,0,0-1.1-2.78C399.64,679.49,398.64,678.24,396.7,678.39Z" transform="translate(-301.07 -545.68)"/><path class="cls-11" d="M508.43,575.42a23.76,23.76,0,0,1-.48-2.49,11,11,0,0,1-6.74,1.62,17.86,17.86,0,0,1-1.87-.28,16.37,16.37,0,0,0-1.88-.27,3.71,3.71,0,0,0-2.78.75c-1.14,1.13-.68,3.28-.43,4.15.72,2.5,2.56,5.5,5.54,6.39a1.62,1.62,0,0,0,1.23,0c.33-.21.41-.75.52-1.61a8.73,8.73,0,0,1,.24-1.4c.58-2,2.48-3.19,3.74-4l3.21-2A8.37,8.37,0,0,1,508.43,575.42Z" transform="translate(-301.07 -545.68)"/><path class="cls-11" d="M512.86,569.56a2.42,2.42,0,0,0-1.51-.61,1.4,1.4,0,0,0-.7.18,2,2,0,0,0-.77,1.23,6,6,0,0,0,0,1.93,19.35,19.35,0,0,0,.49,2.63,3.68,3.68,0,0,0,.49,1.22,2.39,2.39,0,0,0,2.21.72,1.34,1.34,0,0,0,.56-.16c.31-.21.44-.81.53-1.37.39-2.45.52-4.18-1.3-5.77Z" transform="translate(-301.07 -545.68)"/></g><g id="Camada_39" data-name="Camada 39"><path class="cls-8" d="M396.56,676.39a3.55,3.55,0,0,0-2.75,1.51,4.58,4.58,0,0,0-.38,3.33l0,.16a9,9,0,0,1-6.67,3.38c-.4,0-.81,0-1.23,0-1.74,0-3.71,0-5.11,1.36-1.57,1.57-1.37,4.06-.53,5.72a12.25,12.25,0,0,0,2.55,3.15,22.08,22.08,0,0,1-2.78,2.34l1.14,1.64a24.94,24.94,0,0,0,3.06-2.57,11,11,0,0,0,3.75,2.79,5.21,5.21,0,0,0,1.83.34,4,4,0,0,0,3.9-2.35,5.87,5.87,0,0,0,.22-2.6c0-.27,0-.54,0-.8A7.3,7.3,0,0,1,395,689.7a20.7,20.7,0,0,1,2.79-3.07q.79.38,1.62.69a4.05,4.05,0,0,0,1.37.32h.1a3.44,3.44,0,0,0,3.18-3.41,6.82,6.82,0,0,0-1.45-4C401.35,678.43,399.79,676.18,396.56,676.39Zm-3.2,12.16a9.17,9.17,0,0,0-1.82,5.25c0,.31,0,.63,0,.94a4,4,0,0,1-.09,1.72c-.4,1-2,1.32-3.14.88a9.77,9.77,0,0,1-3.19-2.48l-1.05-1a11.74,11.74,0,0,1-2.42-2.88,3.07,3.07,0,0,1,.16-3.4c.81-.81,2.2-.79,3.67-.77.46,0,.91,0,1.34,0a11.07,11.07,0,0,0,7.28-3.16,4.81,4.81,0,0,0,.72,1.13,5.28,5.28,0,0,0,1.06.9A19.89,19.89,0,0,0,393.36,688.55Zm7.49-2.9a2.75,2.75,0,0,1-.74-.2,21.5,21.5,0,0,1-2.25-1,5.17,5.17,0,0,1-1.49-1,5.24,5.24,0,0,1-1-2.54,2.86,2.86,0,0,1,.1-1.9,1.52,1.52,0,0,1,1.2-.59c1.94-.15,2.94,1.1,4.26,3a5,5,0,0,1,1.1,2.78C402,684.85,401.48,685.65,400.85,685.65Z" transform="translate(-301.07 -545.68)"/><path class="cls-8" d="M514.18,568.05a4,4,0,0,0-4.57-.62,3.88,3.88,0,0,0-1.68,2.49,5.58,5.58,0,0,0-.1.68l0,0a8.9,8.9,0,0,1-6.42,2c-.56,0-1.11-.15-1.69-.26a19.84,19.84,0,0,0-2.11-.3,5.52,5.52,0,0,0-4.31,1.33c-1.85,1.81-1.39,4.61-.95,6.12a13.58,13.58,0,0,0,.8,2.08,49.7,49.7,0,0,0-4.93,2.94l1.13,1.65a46.64,46.64,0,0,1,4.78-2.84,9.64,9.64,0,0,0,5.11,3.93,4.83,4.83,0,0,0,1.35.21,2.77,2.77,0,0,0,1.52-.41,3.79,3.79,0,0,0,1.43-3.06,7.28,7.28,0,0,1,.19-1.08c.33-1.18,1.55-2,2.87-2.83l3.31-2.06a4.44,4.44,0,0,0,2.76.91,5.16,5.16,0,0,0,.67,0,3.11,3.11,0,0,0,1.44-.49,3.82,3.82,0,0,0,1.37-2.71C516.57,572.93,516.75,570.31,514.18,568.05Zm-8.66,10.29c-1.26.78-3.16,2-3.74,4a8.73,8.73,0,0,0-.24,1.4c-.11.86-.19,1.4-.52,1.61a1.62,1.62,0,0,1-1.23,0c-3-.89-4.82-3.89-5.54-6.39-.25-.87-.71-3,.43-4.15a3.71,3.71,0,0,1,2.78-.75,16.37,16.37,0,0,1,1.88.27,17.86,17.86,0,0,0,1.87.28,11,11,0,0,0,6.74-1.62,23.76,23.76,0,0,0,.48,2.49,8.37,8.37,0,0,0,.3.93Zm8.64-3c-.09.56-.22,1.16-.53,1.37a1.34,1.34,0,0,1-.56.16,2.39,2.39,0,0,1-2.21-.72,3.68,3.68,0,0,1-.49-1.22,19.35,19.35,0,0,1-.49-2.63,6,6,0,0,1,0-1.93,2,2,0,0,1,.77-1.23,1.4,1.4,0,0,1,.7-.18,2.42,2.42,0,0,1,1.51.61h0C514.68,571.15,514.55,572.88,514.16,575.33Z" transform="translate(-301.07 -545.68)"/><path class="cls-8" d="M380.39,587.1c1.13-1.23,2.21-2.53,3.24-3.86a28.82,28.82,0,0,0,5.22,1.25,3.44,3.44,0,0,0,.63.07,1.81,1.81,0,0,0,.73-.14,2.13,2.13,0,0,0,1-.9,6.55,6.55,0,0,0,.51-4.43,10.54,10.54,0,0,1-.12-2.13,9.35,9.35,0,0,1,1.31-3.38l2-3.67a7.89,7.89,0,0,0,.85.09h.16a3.19,3.19,0,0,0,1.3-.24,3.1,3.1,0,0,0,1.66-2.18A5.84,5.84,0,0,0,398,563c-1.31-2-4.32-4.62-7.25-3.64a4.89,4.89,0,0,0-3.16,3,5,5,0,0,0,.59,4.36c.09.13.18.22.26.34a14.74,14.74,0,0,1-7,5.1l-.19.06c-1.27.44-3,1-3.54,2.69a3.71,3.71,0,0,0-.14,1.37,8,8,0,0,0,4.21,6.09c-.92,1.17-1.87,2.31-2.86,3.39ZM389.44,563a2.91,2.91,0,0,1,1.91-1.73,2,2,0,0,1,.69-.11c1.6,0,3.38,1.61,4.26,3a3.89,3.89,0,0,1,.64,3,1.2,1.2,0,0,1-.53.83,1.71,1.71,0,0,1-.6.07,13.43,13.43,0,0,1-4.14-1,4.75,4.75,0,0,1-1.13-.53,2.72,2.72,0,0,1-.7-.78h0A3,3,0,0,1,389.44,563Zm-9.87,13.13a1.72,1.72,0,0,1,.05-.64c.22-.7,1.27-1.06,2.28-1.4l.19-.07a16.69,16.69,0,0,0,7.82-5.67,9.58,9.58,0,0,0,1.07.46c.6.22,1.23.44,1.89.64l-1.71,3.16a10.94,10.94,0,0,0-1.55,4.15,12,12,0,0,0,.12,2.55,4.79,4.79,0,0,1-.22,3.13l-.06.1-.26,0a19.75,19.75,0,0,1-6.29-1.81A6.08,6.08,0,0,1,379.57,576.15Z" transform="translate(-301.07 -545.68)"/></g></g><g id="teste"><path class="cls-12" d="M383.22,575.21a5,5,0,0,0,4.26,3.53" transform="translate(-301.07 -545.68)"/><path class="cls-12" d="M498,576.48a6.18,6.18,0,0,0-.13,3.22,3,3,0,0,0,2.16,2.23" transform="translate(-301.07 -545.68)"/><path class="cls-12" d="M385.88,689a6.74,6.74,0,0,0,0,2.53,2.24,2.24,0,0,0,1.67,1.73" transform="translate(-301.07 -545.68)"/></g><g id="luzes"><line class="cls-13" x1="23.93" y1="25.32" x2="71.93" y2="31.32"/><line class="cls-13" x1="103.93" y1="35.32" x2="122.93" y2="35.32"/><path class="cls-13" d="M451,554s-15,30-20,43-19,48-18,51,29,24,45,28" transform="translate(-301.07 -545.68)"/><path class="cls-13" d="M542,594s0,10-6,22-12,26-12,26" transform="translate(-301.07 -545.68)"/><path class="cls-13" d="M534,669s-1,41-1,55,1,53,1,53-22,1-50,0-33-1-33-1" transform="translate(-301.07 -545.68)"/><path class="cls-13" d="M447,695s-7,18-8,32,2,39,0,53-4,23-4,23-25-5-30-5-11,2-17,0-10-4-20-5-17,2-36-1" transform="translate(-301.07 -545.68)"/><path class="cls-13" d="M310,682s16,3,24,2" transform="translate(-301.07 -545.68)"/><path class="cls-13" d="M513.5,790.5l-11,63s-39-5-51-11-20-11-47-33" transform="translate(-301.07 -545.68)"/></g><g id="Camada_43" data-name="Camada 43"><path class="cls-12" d="M328.54,606.4l3.35-2.72c.52,2.75,4,3.82,6.76,3.44s5.46-1.65,8.24-1.34c3.71.4,6.7,3.52,10.41,3.93,3.09.34,6-1.25,8.9-2.41s6.45-1.81,8.89.11c1,.8,1.76,2,3,2.49a6.11,6.11,0,0,0,3,.21l12.78-1.26" transform="translate(-301.07 -545.68)"/><path class="cls-12" d="M326.65,628.06a25.6,25.6,0,0,1,6.57-1.89,5,5,0,0,1,2,0,7.59,7.59,0,0,1,1.58.74c3,1.58,6.59,1.58,10,1.55l5-.05,8.7-.08" transform="translate(-301.07 -545.68)"/><path class="cls-12" d="M326.33,647.08c5.64-3.93,12.94-4.64,19.79-4.1s13.6,2.17,20.47,2.44c6.71.27,13.44-.78,20.15-.3" transform="translate(-301.07 -545.68)"/><path class="cls-12" d="M458,585.1a16.38,16.38,0,0,0-2,9.35,6.84,6.84,0,0,1,7.1,2.1c.94,1.13,1.5,2.55,2.56,3.55,1.71,1.61,4.34,1.78,6.65,1.37a5,5,0,0,1,2.85,0,5.21,5.21,0,0,1,1.71,1.57c2.76,3.23,6.83,5,10.81,6.49A158.55,158.55,0,0,0,508,615.66" transform="translate(-301.07 -545.68)"/><path class="cls-12" d="M449.78,611.65c4.06.68,8.28,1.42,11.58,3.86,1.25.93,2.33,2.07,3.62,2.93,3.24,2.16,7.36,2.3,11.17,3.11a31,31,0,0,1,13.49,6.57" transform="translate(-301.07 -545.68)"/><path class="cls-12" d="M442.31,626.87c2.77-1.16,5.86.42,8.45,2l11.34,6.72a12.31,12.31,0,0,0,2.78,1.35c1.83.53,4,.26,5.47,1.49" transform="translate(-301.07 -545.68)"/><path class="cls-12" d="M354.67,715.45A12.4,12.4,0,0,0,369.3,723c2.41-.7,4.75-2.17,7.21-1.73s4.32,2.71,6.79,3.14c2.91.5,6-1.67,8.71-.56a12.67,12.67,0,0,1,2.56,1.76c6.93,5.11,17.25.07,25.15,3.51" transform="translate(-301.07 -545.68)"/><path class="cls-12" d="M351.86,741.06a104.12,104.12,0,0,0,17.12.12c.92,2.46,3.84,3.55,6.46,3.61s5.25-.59,7.86-.3c3.25.37,6.25,2.21,9.52,2.31,2.57.08,5.07-.93,7.63-.91a24.61,24.61,0,0,1,6.62,1.45,44.93,44.93,0,0,0,17.07,1.53" transform="translate(-301.07 -545.68)"/><path class="cls-12" d="M351.15,762.4a101.28,101.28,0,0,1,27.16-.75c10.59,1.15,21,4,31.67,4" transform="translate(-301.07 -545.68)"/><path class="cls-12" d="M455.82,705.82c3.78,2.42,8.64,2,13.11,1.59s9.44-.46,12.87,2.43a17.9,17.9,0,0,0,3.25,2.74c2.19,1.07,4.77.2,7.17-.21a18.36,18.36,0,0,1,9.15.78,10.88,10.88,0,0,0,3.72,1c2-.06,4.14-1.47,5.77-.34" transform="translate(-301.07 -545.68)"/><path class="cls-12" d="M457.93,727.54c3.55.39,7.05-.9,10.59-1.37,7.62-1,15.22,1.78,22.14,5.11a6.24,6.24,0,0,0,2.66.84,7.61,7.61,0,0,0,3.37-1.22,18.35,18.35,0,0,1,14.5-.93" transform="translate(-301.07 -545.68)"/><path class="cls-12" d="M462.33,745.1c3-2.55,7.21-3.2,11.15-3.07s7.86.93,11.8.83c5-.13,9.81-1.68,14.77-1.79,4.49-.11,8.92.95,13.29,2" transform="translate(-301.07 -545.68)"/><path class="cls-12" d="M483.91,756.59c3.27-1.25,7-2.5,10.18-1.11.79.34,1.52.84,2.33,1.16a9.52,9.52,0,0,0,3,.57c5,.3,10.16-.71,14.79,1.1" transform="translate(-301.07 -545.68)"/><path class="cls-12" d="M445.58,793.26c2.66,3.39,7.36,4.54,11.66,4.27a18,18,0,0,1,4.4,0c3.19.61,5.45,3.5,8.47,4.68,4.59,1.8,10.28-.54,14.49,2a35.89,35.89,0,0,1,3.55,3,5,5,0,0,0,4.29,1.3" transform="translate(-301.07 -545.68)"/><path class="cls-12" d="M446.06,812.24a17.63,17.63,0,0,1,12,1.36c2.52,1.27,4.75,3.15,7.45,4a17.14,17.14,0,0,0,6,.42,8,8,0,0,1,3.67.3c1.29.56,2.13,1.78,3.13,2.77a10.61,10.61,0,0,0,9.61,2.76" transform="translate(-301.07 -545.68)"/></g></g></g></svg>